<svg xmlns="http://www.w3.org/2000/svg" viewBox="0 0 318.6 318.6" width="256" height="256">
  <g transform="translate(-68.7 -68.7) scale(1.2)">
    <polygon fill="#e2761b" points="184.2,71.2 135.5,108.6 144.4,89.8"/>
    <polygon fill="#e4761b" points="184.2,71.2 232.9,108.6 224.2,89.8"/>
    <polygon fill="#d7c1b3" points="184.2,217.8 145.9,185.7 149.6,196.3 184.2,214.7"/>
    <polygon fill="#d7c1b3" points="184.2,214.7 218.8,196.3 222.5,185.7 184.2,217.8"/>
    <polygon fill="#763d16" points="184.2,175.4 180.4,185.6 184.2,200.3 188,185.6"/>
    <polygon fill="#763d16" points="184.2,200.3 157.3,188.1 162.5,180.4 157.3,170.9 184.2,174.8"/>
    <polygon fill="#763d16" points="211.1,170.9 205.9,180.4 211.1,188.1 184.2,200.3 211.1,174.8"/>
    <polygon fill="#f6851b" points="135.5,108.6 143.4,142.7 149.3,130.5"/>
    <polygon fill="#f6851b" points="232.9,108.6 224.9,142.7 219.1,130.5"/>
    <polygon fill="#f6851b" points="184.2,126.6 186.7,152.8 192.1,126.6"/>
    <polygon fill="#f6851b" points="184.2,126.6 176.3,152.8 171,126.6"/>
    <polygon fill="#c0ad9e" points="184.2,126.6 171,126.6 165.5,110.9"/>
    <polygon fill="#c0ad9e" points="184.2,126.6 202.9,110.9 192.1,126.6"/>
    <polygon fill="#231f20" points="157.3,170.9 162.5,180.4 180.4,185.6 184.2,175.4"/>
    <polygon fill="#231f20" points="211.1,170.9 205.9,180.4 188,185.6 184.2,175.4"/>
  </g>
</svg>