<svg xmlns="http://www.w3.org/2000/svg" viewBox="0 0 318.6 318.6">
  <polygon fill="#e2761b" points="274.1,35.5 174.6,110.1 192.8,68.6" />
  <polygon fill="#e4761b" points="44.4,35.5 144,110.6 127,68.6" />
  <polygon fill="#d7c1b3" points="238.5,220.9 209.9,248.3 265.1,263.3 280.3,221.7" />
  <polygon fill="#d7c1b3" points="38.4,221.7 53.6,263.3 108.7,248.3 80.2,220.9" />
  <polygon fill="#f6851b" points="123.4,144.1 116.2,160.6 174.7,160.2 167.1,144" />
  <polygon fill="#f6851b" points="108.7,248.3 122.4,196.5 81.2,198.7" />
  <polygon fill="#f6851b" points="195.9,196.4 209.9,248.3 237.2,198.6" />
  <polygon fill="#763d16" points="209.9,248.3 195.9,196.4 174.7,212.7 174.9,240.8" />
  <polygon fill="#763d16" points="122.4,196.5 108.7,248.3 143.5,240.8 143.4,212.7" />
  <polygon fill="#f6851b" points="143.1,176.6 138.6,185.4 175.8,185.2 171.3,176.5" />
  <polygon fill="#763d16" points="175.8,185.2 138.6,185.4 143.4,212.7 174.7,212.7" />
  <polygon fill="#c0ad9e" points="175.2,123.4 181.7,89.2 162.6,104.7" />
  <polygon fill="#c0ad9e" points="137.5,123.4 156,104.7 136.4,89.2" />
  <polygon fill="#763d16" points="137.5,123.4 123.4,144.1 167.1,144 175.2,123.4" />
  <polygon fill="#f6851b" points="295.3,1 192.8,68.6 214.5,30.4" />
  <polygon fill="#f6851b" points="24.8,1 104,30.4 127,68.6" />
  <polygon fill="#763d16" points="174.9,240.8 174.7,212.7 143.4,212.7 143.5,240.8 108.7,248.3 119.4,256.9 143.2,263.2 174.9,263.2 199.1,256.9 209.9,248.3" />
  <polygon fill="#f6851b" points="267.2,143.2 278.8,102.4 236.2,108.4" />
  <polygon fill="#f6851b" points="51.4,102.4 62.9,143.2 82.3,108.4" />
  <polygon fill="#763d16" points="209.9,248.3 237.2,198.6 248.6,188.4 238.5,220.9" />
  <polygon fill="#763d16" points="80.2,220.9 70.1,188.4 81.2,198.7 108.7,248.3" />
</svg>